# xmcd CD database file
#
# Track frame offsets:
#	150
#	24867
#	46952
#	83357
#	121530
#	145412
#	168730
#	194575
#	221415
#	240707
#	266830
#	293147
#
# Disc length: 4091 seconds
#
# Revision: 0
# Processed by: cddbd v1.5.1PL2 Copyright (c) Steve Scherf et al.
# Submitted via: CDex 1.51
#
DISCID=a60ff90c
DTITLE=Patricia Barber - Modern Cool
DYEAR=1998
DGENRE=Jazz
TTITLE0=Touch Of Trash
TTITLE1=Winter
TTITLE2=You and The Night and The Music
TTITLE3=Constantinople
TTITLE4=Light My Fire
TTITLE5=Silent Partner
TTITLE6=Company
TTITLE7=Let It Rain
TTITLE8=She´s A Lady (Paul Anka)
TTITLE9=Love, Put On Your Faces
TTITLE10=Postmodern Blues
TTITLE11=Let It Rain - Vamp
EXTD=YEAR: 1998
EXTT0=
EXTT1=
EXTT2=
EXTT3=
EXTT4=
EXTT5=
EXTT6=
EXTT7=
EXTT8=
EXTT9=
EXTT10=
EXTT11=
PLAYORDER=
